<?xml version="1.0" encoding="utf-8"?>
<!-- Generator: Adobe Illustrator 23.0.1, SVG Export Plug-In . SVG Version: 6.00 Build 0)  -->
<svg version="1.1" id="Calque_1" xmlns="http://www.w3.org/2000/svg" xmlns:xlink="http://www.w3.org/1999/xlink" x="0px" y="0px"
	 viewBox="0 0 100 100" style="enable-background:new 0 0 100 100;" xml:space="preserve">
<style type="text/css">
	.st0{opacity:0.85;fill:#57B3B9;}
	.st1{fill:#57B3B9;}
	.st2{fill:#FFFFFF;}
</style>
<g>
	<ellipse transform="matrix(0.3112 -0.9503 0.9503 0.3112 -13.0774 81.9569)" class="st0" cx="50" cy="50" rx="49.5" ry="49.5"/>
	<path class="st1" d="M48.2,35.3c-0.6-5.2,1.3-10.8-1.1-15.5c-2-4-6.4-6-10.8-6.9c-4.3-0.8-8.8-0.8-13.1-1.9
		c-0.9-0.2-1.8-0.5-2.6-0.9C8.4,19.2,0.5,33.7,0.5,50c0,27.3,22.2,49.5,49.5,49.5c0.3,0,0.5,0,0.8,0C56.1,96,61,91.9,64.5,86.6
		c4-6.1,5.8-13.8,3.5-20.7C64.1,54.2,49.6,47.5,48.2,35.3z"/>
	<g>
		<ellipse transform="matrix(0.2981 -0.9545 0.9545 0.2981 5.5841 69.4266)" class="st2" cx="50" cy="30.9" rx="15.4" ry="15.4"/>
		<path class="st2" d="M50,52.2c-10.2,0-30.6,5.6-30.8,15.8c6.6,9.9,17.9,16.5,30.8,16.5S74.1,77.9,80.8,68
			C80.6,57.8,60.2,52.2,50,52.2z"/>
	</g>
</g>
</svg>
